<svg width="32" height="59" viewBox="0 0 32 59" fill="none" xmlns="http://www.w3.org/2000/svg">
<ellipse cx="5.33333" cy="48.2727" rx="5.33333" ry="5.36364" fill="url(#paint0_linear)"/>
<ellipse cx="5.33333" cy="28.7491" rx="5.33333" ry="5.36364" fill="white"/>
<ellipse cx="5.33333" cy="5.36364" rx="5.33333" ry="5.36364" fill="white"/>
<path d="M1.49316 9.08716L9.03563 1.50183L24.4574 17.0112C28.623 21.2005 28.623 27.9926 24.4574 32.1819V32.1819L1.49316 9.08716Z" fill="url(#paint1_linear)"/>
<path d="M21.3335 13.8691V13.8691C28.1653 20.7402 32.0002 30.0358 32.0002 39.7252V48.4873H21.3335V13.8691Z" fill="url(#paint2_linear)"/>
<path d="M0 48.2727H32V48.2727C32 54.1972 27.1972 59 21.2727 59H10.7273C4.80277 59 0 54.1972 0 48.2727V48.2727Z" fill="white"/>
<defs>
<linearGradient id="paint0_linear" x1="0" y1="48.2727" x2="0.754732" y2="51.489" gradientUnits="userSpaceOnUse">
<stop stop-color="white"/>
<stop offset="1" stop-color="#DDDDDD"/>
</linearGradient>
<linearGradient id="paint1_linear" x1="28.6931" y1="17.2709" x2="21.3184" y2="13.8701" gradientUnits="userSpaceOnUse">
<stop stop-color="#DDDDDD"/>
<stop offset="1" stop-color="white"/>
</linearGradient>
<linearGradient id="paint2_linear" x1="32.0002" y1="48.2728" x2="31.1202" y2="52.021" gradientUnits="userSpaceOnUse">
<stop stop-color="white"/>
<stop offset="1" stop-color="#DDDDDD"/>
</linearGradient>
</defs>
</svg>
