<svg width="559" height="570" viewBox="0 0 559 570" fill="none" xmlns="http://www.w3.org/2000/svg">
<g filter="url(#filter0_d)">
<path d="M83.5 253.75C71 253.75 61.6667 251 55.5 245.5C49.5 240 45.6667 232.333 44 222.5C42.3333 212.833 41.5 199.083 41.5 181.25C41.5 172.25 40.4167 165.417 38.25 160.75C36.0833 155.917 32.5 151.75 27.5 148.25L26.25 147.5C23.9167 146 22.3333 144.583 21.5 143.25C20.6667 141.917 20.25 140.25 20.25 138.25V135.25C20.25 133.25 20.6667 131.583 21.5 130.25C22.3333 128.917 23.9167 127.5 26.25 126L27.75 125C32.5833 121.5 36.0833 117.417 38.25 112.75C40.4167 108.083 41.5 101.25 41.5 92.25C41.5 74.5833 42.3333 60.8333 44 51C45.6667 41.1667 49.5 33.5833 55.5 28.25C61.6667 22.75 71 20 83.5 20H84.75C86.4167 20 87.75 20.5 88.75 21.5C89.75 22.5 90.25 23.8333 90.25 25.5V29C90.25 30.6667 89.75 32 88.75 33C87.75 34 86.4167 34.5 84.75 34.5H83.5C75.1667 34.5 69.0833 36.5833 65.25 40.75C61.5833 44.9167 59.25 51.0833 58.25 59.25C57.25 67.4167 56.75 80.1667 56.75 97.5C56.75 107.167 55.25 115.167 52.25 121.5C49.25 127.833 44.5 132.917 38 136.75C44.5 140.583 49.25 145.667 52.25 152C55.25 158.333 56.75 166.333 56.75 176C56.75 193.333 57.25 206.083 58.25 214.25C59.25 222.583 61.5833 228.833 65.25 233C69.0833 237.167 75.1667 239.25 83.5 239.25H84.75C86.4167 239.25 87.75 239.75 88.75 240.75C89.75 241.75 90.25 243.083 90.25 244.75V248.25C90.25 249.917 89.75 251.25 88.75 252.25C87.75 253.25 86.4167 253.75 84.75 253.75H83.5ZM475.672 316C488.172 316 497.422 318.75 503.422 324.25C509.589 329.75 513.505 337.417 515.172 347.25C516.839 356.917 517.672 370.667 517.672 388.5C517.672 397.5 518.755 404.417 520.922 409.25C523.089 413.917 526.672 418 531.672 421.5L532.922 422.25C535.255 423.75 536.839 425.167 537.672 426.5C538.505 427.833 538.922 429.5 538.922 431.5V434.5C538.922 436.5 538.505 438.167 537.672 439.5C536.839 440.833 535.255 442.25 532.922 443.75L531.422 444.75C526.589 448.25 523.089 452.333 520.922 457C518.755 461.667 517.672 468.5 517.672 477.5C517.672 495.167 516.839 508.917 515.172 518.75C513.505 528.583 509.589 536.167 503.422 541.5C497.422 547 488.172 549.75 475.672 549.75H474.422C472.755 549.75 471.422 549.25 470.422 548.25C469.422 547.25 468.922 545.917 468.922 544.25V540.75C468.922 539.083 469.422 537.75 470.422 536.75C471.422 535.75 472.755 535.25 474.422 535.25H475.672C484.005 535.25 490.005 533.167 493.672 529C497.505 524.833 499.922 518.667 500.922 510.5C501.922 502.333 502.422 489.583 502.422 472.25C502.422 462.583 503.922 454.583 506.922 448.25C509.922 441.917 514.672 436.833 521.172 433C514.672 429.167 509.922 424.083 506.922 417.75C503.922 411.417 502.422 403.417 502.422 393.75C502.422 376.417 501.922 363.667 500.922 355.5C499.922 347.167 497.505 340.917 493.672 336.75C490.005 332.583 484.005 330.5 475.672 330.5H474.422C472.755 330.5 471.422 330 470.422 329C469.422 328 468.922 326.667 468.922 325V321.5C468.922 319.833 469.422 318.5 470.422 317.5C471.422 316.5 472.755 316 474.422 316H475.672Z" fill="url(#paint0_linear)" fill-opacity="0.45"/>
</g>
<defs>
<filter id="filter0_d" x="0.25" y="-7.62939e-06" width="558.672" height="569.75" filterUnits="userSpaceOnUse" color-interpolation-filters="sRGB">
<feFlood flood-opacity="0" result="BackgroundImageFix"/>
<feColorMatrix in="SourceAlpha" type="matrix" values="0 0 0 0 0 0 0 0 0 0 0 0 0 0 0 0 0 0 127 0"/>
<feOffset/>
<feGaussianBlur stdDeviation="10"/>
<feColorMatrix type="matrix" values="0 0 0 0 0.833398 0 0 0 0 0.680609 0 0 0 0 0.818119 0 0 0 0.5 0"/>
<feBlend mode="normal" in2="BackgroundImageFix" result="effect1_dropShadow"/>
<feBlend mode="normal" in="SourceGraphic" in2="effect1_dropShadow" result="shape"/>
</filter>
<linearGradient id="paint0_linear" x1="63" y1="31.5" x2="513.5" y2="535" gradientUnits="userSpaceOnUse">
<stop stop-color="#FCB4B4"/>
<stop offset="1" stop-color="#F795BA"/>
</linearGradient>
</defs>
</svg>
