<svg width="122" height="169" viewBox="0 0 122 169" fill="none" xmlns="http://www.w3.org/2000/svg">
<path d="M19.9681 65.7722C15.5715 44.9318 28.9018 24.4732 49.7422 20.0766L53.3558 19.3143C74.2913 14.8976 94.8432 28.2888 99.2599 49.2242V49.2242C101.356 59.1588 99.4678 69.5192 94.0022 78.0759L91.8175 81.4963C88.2828 87.03 86.1447 93.3393 85.5868 99.8818L85.5336 100.506C85.2106 104.294 82.4443 107.423 78.7246 108.207L70.3373 109.977L60.6806 112.014C57.3963 112.707 54.0835 110.966 52.791 107.868V107.868C50.0806 101.373 45.471 95.8469 39.5663 92.0157L36.7118 90.1637C28.1099 84.5825 22.0847 75.8054 19.9681 65.7722V65.7722Z" stroke="#B2B8EB" stroke-width="19" stroke-linejoin="round"/>
<rect x="56.5527" y="139.266" width="38.3594" height="7.51989" rx="3.75995" transform="rotate(-30.1725 56.5527 139.266)" fill="#B2B8EB"/>
<rect x="59.0933" y="151.308" width="39.9238" height="7.51989" rx="3.75995" transform="rotate(-30.1725 59.0933 151.308)" fill="#B2B8EB"/>
<rect x="71.3774" y="157.495" width="19.3369" height="5.37135" rx="2.68568" transform="rotate(-30.1725 71.3774 157.495)" fill="#B2B8EB"/>
<rect x="61" y="127.077" width="12.0918" height="5.37135" rx="2.68568" transform="rotate(-30.1725 61 127.077)" fill="#B2B8EB"/>
</svg>
