<svg width="143" height="161" viewBox="0 0 143 161" fill="none" xmlns="http://www.w3.org/2000/svg">
<path fill-rule="evenodd" clip-rule="evenodd" d="M43.0084 22.0265C44.6875 11.9481 54.2188 5.13915 64.2971 6.81823L101.049 12.9413C111.128 14.6203 117.937 24.1516 116.258 34.23L111.154 64.8614L115.012 65.5041C125.908 67.3193 133.269 77.6234 131.453 88.5189L127.688 111.118C123.15 138.357 97.3901 156.76 70.1513 152.221L49.4368 148.77C22.198 144.232 3.79541 118.472 8.33347 91.2333L12.0986 68.6341C13.9138 57.7386 24.2179 50.3775 35.1134 52.1927L37.9052 52.6578L43.0084 22.0265ZM99.4889 31.4362L94.3856 62.0676L54.674 55.4516L59.7773 24.8202C59.9134 24.003 60.6862 23.451 61.5034 23.5871L98.2558 29.7101C99.0729 29.8463 99.625 30.6191 99.4889 31.4362ZM82.9688 96.8564C82.0632 102.292 78.261 106.521 73.4055 108.227C73.3973 108.285 73.3883 108.343 73.3786 108.401L71.7807 117.993C71.1433 121.818 67.5254 124.403 63.6998 123.765C59.8742 123.128 57.2896 119.51 57.927 115.684L59.5249 106.093C59.53 106.063 59.5352 106.033 59.5407 106.002C59.5457 105.975 59.5508 105.947 59.5561 105.919C55.516 102.731 53.2902 97.4979 54.1957 92.0627C55.5194 84.1172 63.0336 78.7493 70.9791 80.073C78.9245 81.3967 84.2925 88.9109 82.9688 96.8564Z" fill="#B2B8EB"/>
</svg>
