<svg width="69" height="180" viewBox="0 0 69 180" fill="none" xmlns="http://www.w3.org/2000/svg">
<path fill-rule="evenodd" clip-rule="evenodd" d="M17.4673 139.914L20.7811 137.872L20.795 133.98C20.7961 133.664 20.8166 133.342 20.8584 133.015L35.7393 16.528C36.2767 12.321 40.1228 9.3463 44.3297 9.88372C48.5367 10.4211 51.5114 14.2672 50.974 18.4742L48.0674 41.2272L42.4603 40.5109C41.0908 40.3359 39.8387 41.3044 39.6637 42.6739C39.4887 44.0435 40.4572 45.2956 41.8268 45.4706L47.4338 46.1868L43.9871 73.1673L38.3801 72.451C37.0105 72.2761 35.7584 73.2445 35.5835 74.6141C35.4085 75.9837 36.3769 77.2358 37.7465 77.4107L43.3535 78.127L39.9069 105.108L34.2999 104.391C32.9303 104.216 31.6782 105.185 31.5032 106.554C31.3283 107.924 32.2967 109.176 33.6663 109.351L39.2733 110.067L36.0931 134.962C36.0514 135.289 35.9904 135.605 35.9122 135.911L34.9471 139.682L37.6412 142.491C40.9259 145.917 42.6732 150.718 42.0278 155.769C40.8939 164.646 32.779 170.922 23.9026 169.788C15.0262 168.654 8.74973 160.539 9.88366 151.663C10.529 146.611 13.427 142.404 17.4673 139.914ZM46.5297 108.506L43.0367 135.849C42.9583 136.462 42.8431 137.062 42.6936 137.646C47.3795 142.533 49.8961 149.418 48.9714 156.656C47.3476 169.368 35.7268 178.356 23.0156 176.732C10.3044 175.108 1.31628 163.487 2.94009 150.776C3.86478 143.538 8.03134 137.506 13.795 133.955C13.7972 133.352 13.8365 132.742 13.9148 132.128L28.7957 15.641C29.823 7.59921 37.1749 1.91284 45.2167 2.94015C53.2585 3.96746 58.9449 11.3194 57.9175 19.3612L54.6981 44.5628L54.6943 44.594L54.6901 44.6253L50.6179 76.5029L50.6141 76.5342L50.6099 76.5654L46.5377 108.443C46.5365 108.454 46.5352 108.464 46.5339 108.474C46.5325 108.485 46.5311 108.495 46.5297 108.506Z" fill="url(#paint0_linear)"/>
<defs>
<linearGradient id="paint0_linear" x1="45.2168" y1="2.94017" x2="24.9254" y2="165.519" gradientUnits="userSpaceOnUse">
<stop stop-color="#FD7D7D"/>
<stop offset="1" stop-color="#B2B8EB"/>
</linearGradient>
</defs>
</svg>
