<svg width="64" height="64" viewBox="0 0 64 64" fill="none" xmlns="http://www.w3.org/2000/svg">
<path d="M42 32C42 34.6522 40.9464 37.1957 39.0711 39.0711C37.1957 40.9464 34.6522 42 32 42C29.3478 42 26.8043 40.9464 24.9289 39.0711C23.0536 37.1957 22 34.6522 22 32C22 31.43 22.06 30.8733 22.1633 30.3333H18.6667V43.6567C18.6667 44.5833 19.4167 45.3333 20.3433 45.3333H43.66C44.1041 45.3325 44.5297 45.1554 44.8434 44.8411C45.1571 44.5267 45.3333 44.1008 45.3333 43.6567V30.3333H41.8367C41.94 30.8733 42 31.43 42 32ZM32 38.6667C32.8757 38.6664 33.7428 38.4937 34.5517 38.1584C35.3607 37.8231 36.0957 37.3317 36.7147 36.7124C37.3338 36.093 37.8248 35.3578 38.1597 34.5487C38.4946 33.7395 38.6669 32.8724 38.6667 31.9967C38.6664 31.121 38.4937 30.2539 38.1584 29.4449C37.8231 28.636 37.3317 27.901 36.7124 27.2819C36.093 26.6629 35.3578 26.1719 34.5487 25.837C33.7395 25.502 32.8724 25.3298 31.9967 25.33C30.2281 25.3304 28.5322 26.0334 27.2819 27.2843C26.0317 28.5352 25.3296 30.2314 25.33 32C25.3304 33.7686 26.0334 35.4645 27.2843 36.7147C28.5352 37.965 30.2314 38.6671 32 38.6667ZM40 25H43.9967C44.2622 25 44.5169 24.8948 44.705 24.7073C44.893 24.5199 44.9991 24.2655 45 24V20.0033C45 19.7372 44.8943 19.482 44.7061 19.2939C44.518 19.1057 44.2628 19 43.9967 19H40C39.7339 19 39.4787 19.1057 39.2905 19.2939C39.1024 19.482 38.9967 19.7372 38.9967 20.0033V24C39 24.55 39.45 25 40 25ZM32 0C23.5131 0 15.3737 3.37142 9.37258 9.37258C3.37142 15.3737 0 23.5131 0 32C0 40.4869 3.37142 48.6263 9.37258 54.6274C15.3737 60.6286 23.5131 64 32 64C36.2023 64 40.3635 63.1723 44.2459 61.5641C48.1283 59.956 51.6559 57.5989 54.6274 54.6274C57.5989 51.6559 59.956 48.1283 61.5641 44.2459C63.1723 40.3635 64 36.2023 64 32C64 27.7977 63.1723 23.6365 61.5641 19.7541C59.956 15.8717 57.5989 12.3441 54.6274 9.37258C51.6559 6.40111 48.1283 4.04401 44.2459 2.43585C40.3635 0.827705 36.2023 0 32 0ZM48.6667 44.9633C48.6667 47 47 48.6667 44.9633 48.6667H19.0367C17 48.6667 15.3333 47 15.3333 44.9633V19.0367C15.3333 17 17 15.3333 19.0367 15.3333H44.9633C47 15.3333 48.6667 17 48.6667 19.0367V44.9633Z" fill="#B2B8EB"/>
</svg>
