<svg width="64" height="64" viewBox="0 0 64 64" fill="none" xmlns="http://www.w3.org/2000/svg">
<path d="M32 0C27.7977 0 23.6365 0.819083 19.7541 2.41048C15.8717 4.00188 12.3441 6.33443 9.37258 9.27495C3.37142 15.2136 0 23.2681 0 31.6667C0 40.0652 3.37142 48.1197 9.37258 54.0584C12.3441 56.9989 15.8717 59.3315 19.7541 60.9229C23.6365 62.5143 27.7977 63.3333 32 63.3333C40.4869 63.3333 48.6263 59.997 54.6274 54.0584C60.6286 48.1197 64 40.0652 64 31.6667C64 27.5081 63.1723 23.3903 61.5641 19.5484C59.956 15.7064 57.5989 12.2155 54.6274 9.27495C51.6559 6.33443 48.1283 4.00188 44.2459 2.41048C40.3635 0.819083 36.2023 0 32 0ZM11.2 20.5833H16C17.152 20.5833 17.6 21.09 18.048 22.3883C20.352 29.0383 24.224 34.8333 25.824 34.8333C26.432 34.8333 26.72 34.58 26.72 33.0917V26.22C26.528 23.0533 24.832 22.7683 24.832 21.66C24.832 21.1217 25.28 20.5833 26.048 20.5833H33.44C34.464 20.5833 34.784 21.1217 34.784 22.2933V31.54C34.784 32.5217 35.2 32.87 35.52 32.87C36.128 32.87 36.64 32.5217 37.728 31.445C41.12 27.6767 43.52 21.9133 43.52 21.9133C43.84 21.2167 44.384 20.5833 45.568 20.5833H50.272C51.712 20.5833 52.032 21.3117 51.712 22.2933C51.104 25.0167 45.376 33.0283 45.376 33.0283C44.8 33.82 44.672 34.2 45.376 35.1183C45.856 35.7833 47.52 37.1767 48.608 38.475C50.656 40.7233 52.16 42.6233 52.608 43.9217C52.992 45.2517 52.32 45.9167 50.976 45.9167H46.24C44.448 45.9167 43.936 44.4917 40.736 41.325C37.92 38.665 36.8 38.3167 36.032 38.3167C35.072 38.3167 34.784 38.57 34.784 39.9317V44.1117C34.784 45.2517 34.432 45.9167 31.424 45.9167C26.432 45.9167 20.928 42.9083 17.056 37.3667C11.2 29.26 9.6 23.1483 9.6 21.9133C9.6 21.2167 9.856 20.5833 11.2 20.5833Z" fill="#B2B8EB"/>
</svg>
