<svg width="32" height="32" viewBox="0 0 32 32" fill="none" xmlns="http://www.w3.org/2000/svg">
<path fill-rule="evenodd" clip-rule="evenodd" d="M16 0C14.5272 0 13.3333 1.19391 13.3333 2.66667V13.3334H2.66667C1.19391 13.3334 0 14.5273 0 16C0 17.4728 1.19391 18.6667 2.66667 18.6667H13.3333V29.3333C13.3333 30.8061 14.5272 32 16 32C17.4728 32 18.6667 30.8061 18.6667 29.3333V18.6667H29.3333C30.8061 18.6667 32 17.4728 32 16C32 14.5273 30.8061 13.3334 29.3333 13.3334H18.6667V2.66667C18.6667 1.19391 17.4728 0 16 0Z" fill="#9D8DFF"/>
</svg>
