<svg width="26" height="25" viewBox="0 0 26 25" fill="none" xmlns="http://www.w3.org/2000/svg">
<path fill-rule="evenodd" clip-rule="evenodd" d="M21.9999 9.5C21.9999 12.5376 19.5375 15 16.4999 15C13.4623 15 10.9999 12.5376 10.9999 9.5C10.9999 6.46243 13.4623 4 16.4999 4C19.5375 4 21.9999 6.46243 21.9999 9.5ZM25.9999 9.5C25.9999 14.7467 21.7466 19 16.4999 19C14.5558 19 12.7481 18.416 11.2426 17.4139L4.24234 24.4142C3.46129 25.1952 2.19496 25.1952 1.41391 24.4142C0.632863 23.6331 0.632863 22.3668 1.41391 21.5857L8.451 14.5487C7.53163 13.086 6.9999 11.3551 6.9999 9.5C6.9999 4.25329 11.2532 0 16.4999 0C21.7466 0 25.9999 4.25329 25.9999 9.5Z" fill="#D3CCFF"/>
</svg>
