<svg width="19" height="21" viewBox="0 0 19 21" fill="none" xmlns="http://www.w3.org/2000/svg">
<path d="M11.9998 0H7.99984C7.44984 0 6.99984 0.45 6.99984 1C6.99984 1.55 7.44984 2 7.99984 2H11.9998C12.5498 2 12.9998 1.55 12.9998 1C12.9998 0.45 12.5498 0 11.9998 0ZM9.99984 13C10.5498 13 10.9998 12.55 10.9998 12V8C10.9998 7.45 10.5498 7 9.99984 7C9.44984 7 8.99984 7.45 8.99984 8V12C8.99984 12.55 9.44984 13 9.99984 13ZM17.0298 6.39L17.7798 5.64C17.9647 5.45395 18.0685 5.2023 18.0685 4.94C18.0685 4.6777 17.9647 4.42605 17.7798 4.24L17.7698 4.23C17.5838 4.04509 17.3321 3.94131 17.0698 3.94131C16.8075 3.94131 16.5559 4.04509 16.3698 4.23L15.6198 4.98C14.0272 3.69833 12.0442 2.99969 9.99984 3C5.19984 3 1.11984 6.96 0.999837 11.76C0.967497 12.962 1.17641 14.1583 1.61422 15.2782C2.05204 16.3981 2.70988 17.4189 3.54888 18.2803C4.38787 19.1417 5.391 19.8261 6.499 20.2933C7.607 20.7604 8.79739 21.0007 9.99984 21C11.6941 21.0009 13.3543 20.5232 14.789 19.622C16.2237 18.7207 17.3746 17.4325 18.1093 15.9057C18.8439 14.379 19.1324 12.6758 18.9414 10.9923C18.7504 9.30874 18.0878 7.71341 17.0298 6.39V6.39ZM9.99984 19C6.12984 19 2.99984 15.87 2.99984 12C2.99984 8.13 6.12984 5 9.99984 5C13.8698 5 16.9998 8.13 16.9998 12C16.9998 15.87 13.8698 19 9.99984 19Z" fill="#9D8DFF"/>
</svg>
